solid component1:solid1
  facet normal 1.000000e+00 -0.000000e+00 -0.000000e+00
    outer loop
      vertex 3.200000e+01 -3.200000e+01 3.200000e+01
      vertex 3.200000e+01 -3.200000e+01 -3.200000e+01
      vertex 3.200000e+01 3.200000e+01 -3.200000e+01
    endloop
  endfacet
  facet normal 1.000000e+00 -0.000000e+00 -0.000000e+00
    outer loop
      vertex 3.200000e+01 -3.200000e+01 3.200000e+01
      vertex 3.200000e+01 3.200000e+01 -3.200000e+01
      vertex 3.200000e+01 3.200000e+01 3.200000e+01
    endloop
  endfacet
  facet normal -0.000000e+00 1.000000e+00 -0.000000e+00
    outer loop
      vertex 3.200000e+01 3.200000e+01 3.200000e+01
      vertex 3.200000e+01 3.200000e+01 -3.200000e+01
      vertex -3.200000e+01 3.200000e+01 -3.200000e+01
    endloop
  endfacet
  facet normal -0.000000e+00 1.000000e+00 -0.000000e+00
    outer loop
      vertex 3.200000e+01 3.200000e+01 3.200000e+01
      vertex -3.200000e+01 3.200000e+01 -3.200000e+01
      vertex -3.200000e+01 3.200000e+01 3.200000e+01
    endloop
  endfacet
  facet normal -1.000000e+00 -0.000000e+00 -0.000000e+00
    outer loop
      vertex -3.200000e+01 3.200000e+01 3.200000e+01
      vertex -3.200000e+01 3.200000e+01 -3.200000e+01
      vertex -3.200000e+01 -3.200000e+01 -3.200000e+01
    endloop
  endfacet
  facet normal -1.000000e+00 -0.000000e+00 -0.000000e+00
    outer loop
      vertex -3.200000e+01 3.200000e+01 3.200000e+01
      vertex -3.200000e+01 -3.200000e+01 -3.200000e+01
      vertex -3.200000e+01 -3.200000e+01 3.200000e+01
    endloop
  endfacet
  facet normal -0.000000e+00 -1.000000e+00 0.000000e+00
    outer loop
      vertex -3.200000e+01 -3.200000e+01 3.200000e+01
      vertex -3.200000e+01 -3.200000e+01 -3.200000e+01
      vertex 3.200000e+01 -3.200000e+01 -3.200000e+01
    endloop
  endfacet
  facet normal -0.000000e+00 -1.000000e+00 0.000000e+00
    outer loop
      vertex -3.200000e+01 -3.200000e+01 3.200000e+01
      vertex 3.200000e+01 -3.200000e+01 -3.200000e+01
      vertex 3.200000e+01 -3.200000e+01 3.200000e+01
    endloop
  endfacet
  facet normal -0.000000e+00 -0.000000e+00 -1.000000e+00
    outer loop
      vertex 3.200000e+01 3.200000e+01 -3.200000e+01
      vertex 3.200000e+01 -3.200000e+01 -3.200000e+01
      vertex -3.200000e+01 -3.200000e+01 -3.200000e+01
    endloop
  endfacet
  facet normal -0.000000e+00 -0.000000e+00 -1.000000e+00
    outer loop
      vertex 3.200000e+01 3.200000e+01 -3.200000e+01
      vertex -3.200000e+01 -3.200000e+01 -3.200000e+01
      vertex -3.200000e+01 3.200000e+01 -3.200000e+01
    endloop
  endfacet
  facet normal 0.000000e+00 0.000000e+00 1.000000e+00
    outer loop
      vertex 3.200000e+01 -3.200000e+01 3.200000e+01
      vertex 3.200000e+01 3.200000e+01 3.200000e+01
      vertex -3.200000e+01 3.200000e+01 3.200000e+01
    endloop
  endfacet
  facet normal 0.000000e+00 0.000000e+00 1.000000e+00
    outer loop
      vertex 3.200000e+01 -3.200000e+01 3.200000e+01
      vertex -3.200000e+01 3.200000e+01 3.200000e+01
      vertex -3.200000e+01 -3.200000e+01 3.200000e+01
    endloop
  endfacet
endsolid component1:solid1
