solid component1:solid1
  facet normal 1.000000e+00 -0.000000e+00 -0.000000e+00
    outer loop
      vertex 6.000000e+00 -6.000000e+00 1.000000e+01
      vertex 6.000000e+00 6.000000e+00 3.500000e+01
      vertex 6.000000e+00 -6.000000e+00 3.500000e+01
    endloop
  endfacet
  facet normal 1.000000e+00 -0.000000e+00 -0.000000e+00
    outer loop
      vertex 6.000000e+00 6.000000e+00 1.000000e+01
      vertex 6.000000e+00 6.000000e+00 3.500000e+01
      vertex 6.000000e+00 -6.000000e+00 1.000000e+01
    endloop
  endfacet
  facet normal -0.000000e+00 -1.000000e+00 0.000000e+00
    outer loop
      vertex -6.000000e+00 -6.000000e+00 1.000000e+01
      vertex 6.000000e+00 -6.000000e+00 3.500000e+01
      vertex -6.000000e+00 -6.000000e+00 3.500000e+01
    endloop
  endfacet
  facet normal -0.000000e+00 -1.000000e+00 0.000000e+00
    outer loop
      vertex 6.000000e+00 -6.000000e+00 1.000000e+01
      vertex 6.000000e+00 -6.000000e+00 3.500000e+01
      vertex -6.000000e+00 -6.000000e+00 1.000000e+01
    endloop
  endfacet
  facet normal -0.000000e+00 -0.000000e+00 -1.000000e+00
    outer loop
      vertex 6.000000e+00 6.000000e+00 -3.500000e+01
      vertex -6.000000e+00 -6.000000e+00 -3.500000e+01
      vertex -6.000000e+00 6.000000e+00 -3.500000e+01
    endloop
  endfacet
  facet normal -0.000000e+00 -0.000000e+00 -1.000000e+00
    outer loop
      vertex 6.000000e+00 -6.000000e+00 -3.500000e+01
      vertex -6.000000e+00 -6.000000e+00 -3.500000e+01
      vertex 6.000000e+00 6.000000e+00 -3.500000e+01
    endloop
  endfacet
  facet normal 0.000000e+00 0.000000e+00 1.000000e+00
    outer loop
      vertex 6.000000e+00 -6.000000e+00 3.500000e+01
      vertex -6.000000e+00 6.000000e+00 3.500000e+01
      vertex -6.000000e+00 -6.000000e+00 3.500000e+01
    endloop
  endfacet
  facet normal 0.000000e+00 0.000000e+00 1.000000e+00
    outer loop
      vertex 6.000000e+00 6.000000e+00 3.500000e+01
      vertex -6.000000e+00 6.000000e+00 3.500000e+01
      vertex 6.000000e+00 -6.000000e+00 3.500000e+01
    endloop
  endfacet
  facet normal -0.000000e+00 -1.000000e+00 0.000000e+00
    outer loop
      vertex 6.000000e+00 -6.000000e+00 -1.000000e+01
      vertex -6.000000e+00 -6.000000e+00 -3.500000e+01
      vertex 6.000000e+00 -6.000000e+00 -3.500000e+01
    endloop
  endfacet
  facet normal -0.000000e+00 -1.000000e+00 0.000000e+00
    outer loop
      vertex -6.000000e+00 -6.000000e+00 -1.000000e+01
      vertex -6.000000e+00 -6.000000e+00 -3.500000e+01
      vertex 6.000000e+00 -6.000000e+00 -1.000000e+01
    endloop
  endfacet
  facet normal 1.000000e+00 -0.000000e+00 -0.000000e+00
    outer loop
      vertex 6.000000e+00 6.000000e+00 -1.000000e+01
      vertex 6.000000e+00 -6.000000e+00 -3.500000e+01
      vertex 6.000000e+00 6.000000e+00 -3.500000e+01
    endloop
  endfacet
  facet normal 1.000000e+00 -0.000000e+00 -0.000000e+00
    outer loop
      vertex 6.000000e+00 -6.000000e+00 -1.000000e+01
      vertex 6.000000e+00 -6.000000e+00 -3.500000e+01
      vertex 6.000000e+00 6.000000e+00 -1.000000e+01
    endloop
  endfacet
  facet normal -1.000000e+00 -0.000000e+00 -0.000000e+00
    outer loop
      vertex -6.000000e+00 6.000000e+00 1.000000e+01
      vertex -6.000000e+00 -6.000000e+00 3.500000e+01
      vertex -6.000000e+00 6.000000e+00 3.500000e+01
    endloop
  endfacet
  facet normal -1.000000e+00 -0.000000e+00 -0.000000e+00
    outer loop
      vertex -6.000000e+00 -6.000000e+00 1.000000e+01
      vertex -6.000000e+00 -6.000000e+00 3.500000e+01
      vertex -6.000000e+00 6.000000e+00 1.000000e+01
    endloop
  endfacet
  facet normal -1.000000e+00 -0.000000e+00 -0.000000e+00
    outer loop
      vertex -6.000000e+00 -6.000000e+00 -1.000000e+01
      vertex -6.000000e+00 6.000000e+00 -3.500000e+01
      vertex -6.000000e+00 -6.000000e+00 -3.500000e+01
    endloop
  endfacet
  facet normal -1.000000e+00 -0.000000e+00 -0.000000e+00
    outer loop
      vertex -6.000000e+00 6.000000e+00 -1.000000e+01
      vertex -6.000000e+00 6.000000e+00 -3.500000e+01
      vertex -6.000000e+00 -6.000000e+00 -1.000000e+01
    endloop
  endfacet
  facet normal -0.000000e+00 1.000000e+00 -0.000000e+00
    outer loop
      vertex 6.000000e+00 6.000000e+00 1.000000e+01
      vertex -6.000000e+00 6.000000e+00 3.500000e+01
      vertex 6.000000e+00 6.000000e+00 3.500000e+01
    endloop
  endfacet
  facet normal -0.000000e+00 1.000000e+00 -0.000000e+00
    outer loop
      vertex -6.000000e+00 6.000000e+00 1.000000e+01
      vertex -6.000000e+00 6.000000e+00 3.500000e+01
      vertex 6.000000e+00 6.000000e+00 1.000000e+01
    endloop
  endfacet
  facet normal -0.000000e+00 1.000000e+00 -0.000000e+00
    outer loop
      vertex -6.000000e+00 6.000000e+00 -1.000000e+01
      vertex 6.000000e+00 6.000000e+00 -3.500000e+01
      vertex -6.000000e+00 6.000000e+00 -3.500000e+01
    endloop
  endfacet
  facet normal -0.000000e+00 1.000000e+00 -0.000000e+00
    outer loop
      vertex 6.000000e+00 6.000000e+00 -1.000000e+01
      vertex 6.000000e+00 6.000000e+00 -3.500000e+01
      vertex -6.000000e+00 6.000000e+00 -1.000000e+01
    endloop
  endfacet
  facet normal 1.000000e+00 -0.000000e+00 -0.000000e+00
    outer loop
      vertex 1.500000e+01 1.500000e+01 1.000000e+01
      vertex 1.500000e+01 -1.500000e+01 -1.000000e+01
      vertex 1.500000e+01 1.500000e+01 -1.000000e+01
    endloop
  endfacet
  facet normal 1.000000e+00 -0.000000e+00 -0.000000e+00
    outer loop
      vertex 1.500000e+01 -1.500000e+01 1.000000e+01
      vertex 1.500000e+01 -1.500000e+01 -1.000000e+01
      vertex 1.500000e+01 1.500000e+01 1.000000e+01
    endloop
  endfacet
  facet normal -0.000000e+00 1.000000e+00 -0.000000e+00
    outer loop
      vertex -1.500000e+01 1.500000e+01 1.000000e+01
      vertex 1.500000e+01 1.500000e+01 -1.000000e+01
      vertex -1.500000e+01 1.500000e+01 -1.000000e+01
    endloop
  endfacet
  facet normal -0.000000e+00 1.000000e+00 -0.000000e+00
    outer loop
      vertex 1.500000e+01 1.500000e+01 1.000000e+01
      vertex 1.500000e+01 1.500000e+01 -1.000000e+01
      vertex -1.500000e+01 1.500000e+01 1.000000e+01
    endloop
  endfacet
  facet normal -1.000000e+00 -0.000000e+00 -0.000000e+00
    outer loop
      vertex -1.500000e+01 -1.500000e+01 1.000000e+01
      vertex -1.500000e+01 1.500000e+01 -1.000000e+01
      vertex -1.500000e+01 -1.500000e+01 -1.000000e+01
    endloop
  endfacet
  facet normal -1.000000e+00 -0.000000e+00 -0.000000e+00
    outer loop
      vertex -1.500000e+01 1.500000e+01 1.000000e+01
      vertex -1.500000e+01 1.500000e+01 -1.000000e+01
      vertex -1.500000e+01 -1.500000e+01 1.000000e+01
    endloop
  endfacet
  facet normal -0.000000e+00 -1.000000e+00 0.000000e+00
    outer loop
      vertex 1.500000e+01 -1.500000e+01 1.000000e+01
      vertex -1.500000e+01 -1.500000e+01 -1.000000e+01
      vertex 1.500000e+01 -1.500000e+01 -1.000000e+01
    endloop
  endfacet
  facet normal -0.000000e+00 -1.000000e+00 0.000000e+00
    outer loop
      vertex -1.500000e+01 -1.500000e+01 1.000000e+01
      vertex -1.500000e+01 -1.500000e+01 -1.000000e+01
      vertex 1.500000e+01 -1.500000e+01 1.000000e+01
    endloop
  endfacet
  facet normal -0.000000e+00 -0.000000e+00 -1.000000e+00
    outer loop
      vertex -1.500000e+01 1.500000e+01 -1.000000e+01
      vertex -6.000000e+00 6.000000e+00 -1.000000e+01
      vertex -1.500000e+01 -1.500000e+01 -1.000000e+01
    endloop
  endfacet
  facet normal -0.000000e+00 -0.000000e+00 -1.000000e+00
    outer loop
      vertex 1.500000e+01 1.500000e+01 -1.000000e+01
      vertex -6.000000e+00 6.000000e+00 -1.000000e+01
      vertex -1.500000e+01 1.500000e+01 -1.000000e+01
    endloop
  endfacet
  facet normal -0.000000e+00 -0.000000e+00 -1.000000e+00
    outer loop
      vertex 1.500000e+01 1.500000e+01 -1.000000e+01
      vertex 6.000000e+00 6.000000e+00 -1.000000e+01
      vertex -6.000000e+00 6.000000e+00 -1.000000e+01
    endloop
  endfacet
  facet normal -0.000000e+00 -0.000000e+00 -1.000000e+00
    outer loop
      vertex 1.500000e+01 -1.500000e+01 -1.000000e+01
      vertex 6.000000e+00 6.000000e+00 -1.000000e+01
      vertex 1.500000e+01 1.500000e+01 -1.000000e+01
    endloop
  endfacet
  facet normal -0.000000e+00 -0.000000e+00 -1.000000e+00
    outer loop
      vertex 1.500000e+01 -1.500000e+01 -1.000000e+01
      vertex 6.000000e+00 -6.000000e+00 -1.000000e+01
      vertex 6.000000e+00 6.000000e+00 -1.000000e+01
    endloop
  endfacet
  facet normal -0.000000e+00 -0.000000e+00 -1.000000e+00
    outer loop
      vertex -1.500000e+01 -1.500000e+01 -1.000000e+01
      vertex 6.000000e+00 -6.000000e+00 -1.000000e+01
      vertex 1.500000e+01 -1.500000e+01 -1.000000e+01
    endloop
  endfacet
  facet normal -0.000000e+00 -0.000000e+00 -1.000000e+00
    outer loop
      vertex -1.500000e+01 -1.500000e+01 -1.000000e+01
      vertex -6.000000e+00 -6.000000e+00 -1.000000e+01
      vertex 6.000000e+00 -6.000000e+00 -1.000000e+01
    endloop
  endfacet
  facet normal -0.000000e+00 -0.000000e+00 -1.000000e+00
    outer loop
      vertex -6.000000e+00 6.000000e+00 -1.000000e+01
      vertex -6.000000e+00 -6.000000e+00 -1.000000e+01
      vertex -1.500000e+01 -1.500000e+01 -1.000000e+01
    endloop
  endfacet
  facet normal 0.000000e+00 0.000000e+00 1.000000e+00
    outer loop
      vertex -1.500000e+01 -1.500000e+01 1.000000e+01
      vertex 1.500000e+01 -1.500000e+01 1.000000e+01
      vertex -6.000000e+00 -6.000000e+00 1.000000e+01
    endloop
  endfacet
  facet normal 0.000000e+00 0.000000e+00 1.000000e+00
    outer loop
      vertex -6.000000e+00 6.000000e+00 1.000000e+01
      vertex -1.500000e+01 -1.500000e+01 1.000000e+01
      vertex -6.000000e+00 -6.000000e+00 1.000000e+01
    endloop
  endfacet
  facet normal 0.000000e+00 0.000000e+00 1.000000e+00
    outer loop
      vertex -1.500000e+01 1.500000e+01 1.000000e+01
      vertex -1.500000e+01 -1.500000e+01 1.000000e+01
      vertex -6.000000e+00 6.000000e+00 1.000000e+01
    endloop
  endfacet
  facet normal 0.000000e+00 0.000000e+00 1.000000e+00
    outer loop
      vertex 6.000000e+00 6.000000e+00 1.000000e+01
      vertex -1.500000e+01 1.500000e+01 1.000000e+01
      vertex -6.000000e+00 6.000000e+00 1.000000e+01
    endloop
  endfacet
  facet normal 0.000000e+00 0.000000e+00 1.000000e+00
    outer loop
      vertex 1.500000e+01 1.500000e+01 1.000000e+01
      vertex -1.500000e+01 1.500000e+01 1.000000e+01
      vertex 6.000000e+00 6.000000e+00 1.000000e+01
    endloop
  endfacet
  facet normal 0.000000e+00 0.000000e+00 1.000000e+00
    outer loop
      vertex 1.500000e+01 -1.500000e+01 1.000000e+01
      vertex 6.000000e+00 -6.000000e+00 1.000000e+01
      vertex -6.000000e+00 -6.000000e+00 1.000000e+01
    endloop
  endfacet
  facet normal 0.000000e+00 0.000000e+00 1.000000e+00
    outer loop
      vertex 1.500000e+01 -1.500000e+01 1.000000e+01
      vertex 6.000000e+00 6.000000e+00 1.000000e+01
      vertex 6.000000e+00 -6.000000e+00 1.000000e+01
    endloop
  endfacet
  facet normal 0.000000e+00 0.000000e+00 1.000000e+00
    outer loop
      vertex 1.500000e+01 1.500000e+01 1.000000e+01
      vertex 6.000000e+00 6.000000e+00 1.000000e+01
      vertex 1.500000e+01 -1.500000e+01 1.000000e+01
    endloop
  endfacet
endsolid component1:solid1
